<svg width="48" height="48" viewBox="0 0 48 48" fill="none" xmlns="http://www.w3.org/2000/svg">
<path d="M16.5688 13.4562C16.5688 14.2328 17.1984 14.8625 17.975 14.8625H40.5688C41.3454 14.8625 41.975 14.2328 41.975 13.4562C41.975 12.6796 41.3454 12.05 40.5688 12.05H17.975C17.1984 12.05 16.5688 12.6796 16.5688 13.4562Z" fill="#25316B"/>
<path d="M34.5439 18.075H17.975C17.1984 18.075 16.5688 18.7046 16.5688 19.4813C16.5688 20.2579 17.1984 20.8875 17.975 20.8875H34.5438C36.4025 20.8208 36.411 18.1452 34.5439 18.075Z" fill="#25316B"/>
<path d="M43.5814 0H14.9625C12.5433 0 10.5438 1.95478 10.5438 4.41872V24.0999H1.40625C0.629626 24.0999 0 24.7296 0 25.5062V46.5938C0 47.3704 0.629626 48 1.40625 48H40.5688C41.3454 48 41.9751 47.3704 41.9751 46.5938V37.4562H43.5813C46.0004 37.4562 48 35.5014 48 33.0375V4.41872C48.0001 2.00475 46.0501 0 43.5814 0ZM33.0376 2.8125C33.9244 2.8125 34.6438 3.53034 34.6438 4.41872C34.6438 4.98506 34.7509 5.52694 34.9459 6.02494H28.5188C27.6395 6.02494 26.9126 5.31497 26.9126 4.41722C26.9126 3.85144 26.8056 3.31013 26.6109 2.8125H33.0376ZM2.81251 26.9124H7.36839C6.83776 29.1624 5.06251 30.9378 2.81251 31.4684V26.9124ZM2.81251 45.1875V40.6316C5.06251 41.1623 6.83776 42.9375 7.36839 45.1875H2.81251ZM39.1625 45.1875H34.6067C35.1373 42.9375 36.9125 41.1623 39.1625 40.6316V45.1875ZM39.1625 37.7668C35.3581 38.3705 32.3455 41.383 31.7418 45.1875H10.2333C9.62964 41.383 6.61698 38.3705 2.81251 37.7668V34.3333C6.61698 33.7297 9.62964 30.717 10.2333 26.9125H31.7418C32.3455 30.717 35.3581 33.7297 39.1625 34.3333V37.7668ZM39.1625 31.4684C36.9125 30.9378 35.1373 29.1624 34.6067 26.9124H39.1625V31.4684ZM45.1876 33.0375C45.1876 33.9224 44.4715 34.6437 43.5814 34.6437H41.9751V25.5062C41.9751 24.7296 41.3455 24.0999 40.5689 24.0999H13.3563V4.41872C13.3563 3.53381 14.0724 2.8125 14.9625 2.8125H22.4938C23.3805 2.8125 24.1 3.53044 24.1 4.41872C24.1 6.83756 26.0543 8.83744 28.5187 8.83744H45.1876V33.0375ZM45.1876 6.02503H39.0626C38.177 6.02503 37.4564 5.30447 37.4564 4.41731C37.4564 3.85153 37.3494 3.31022 37.1547 2.81259H43.5814C44.4682 2.8125 45.1876 3.53034 45.1876 4.41872V6.02503Z" fill="#25316B"/>
<path d="M20.9876 30.125C17.7205 30.125 15.0626 32.783 15.0626 36.05C15.3604 43.8995 26.6159 43.8974 26.9126 36.0499C26.9125 32.783 24.2546 30.125 20.9876 30.125ZM20.9876 39.1625C19.2713 39.1625 17.8751 37.7662 17.8751 36.05C18.0315 31.9265 23.9442 31.9276 24.1001 36.05C24.1 37.7662 22.7038 39.1625 20.9876 39.1625Z" fill="#25316B"/>
</svg>
