<svg width="48" height="48" viewBox="0 0 48 48" fill="none" xmlns="http://www.w3.org/2000/svg">
<path d="M46.5938 45.1875L45.0938 45.1874L45.0956 21.7035L45.7987 22.1095C46.7362 22.6508 47.9081 21.9743 47.9082 20.8918L47.9087 14.3966C47.9087 13.8942 47.6408 13.43 47.2057 13.1787L24.7035 0.186656C24.27 -0.0621562 23.737 -0.06225 23.3035 0.186562L0.799406 13.1752C0.364313 13.4263 0.0961875 13.8906 0.0961875 14.393L0.0957188 20.8882C0.095625 21.9708 1.26741 22.6475 2.205 22.1063L2.90812 21.7003L2.90634 45.1842L1.40634 45.1841C0.629719 45.184 9.37605e-05 45.8137 1.04681e-08 46.5903C-9.37395e-05 47.3669 0.629531 47.9966 1.40616 47.9966L46.5937 48C47.3703 48.0001 48 47.3705 48 46.5938C48.0001 45.8172 47.3705 45.1876 46.5938 45.1875ZM2.90859 15.205L24.0033 3.02822L45.0961 15.2082L45.0958 18.4559L24.7061 6.68184C24.271 6.43059 23.735 6.43059 23.2999 6.68175L2.90841 18.4527L2.90859 15.205ZM17.9064 44.5291L17.9063 45.1853L11.3438 45.1849L11.3445 36.0911C11.3447 33.248 13.658 30.9351 16.5011 30.9353C18.532 30.9354 20.3368 32.118 21.1712 33.9032C20.3185 34.6756 19.782 35.7908 19.7819 37.0293C19.7818 37.9475 20.0775 38.7974 20.5775 39.4908C18.9667 40.5884 17.9065 42.4371 17.9064 44.5291ZM13.6891 25.31C13.6892 23.7592 14.951 22.4976 16.5018 22.4977C18.0526 22.4978 19.3142 23.7595 19.3141 25.3103C19.314 26.8612 18.0522 28.1228 16.5014 28.1227C14.9506 28.1226 13.689 26.8608 13.6891 25.31ZM27.2813 45.1861L20.7188 45.1856L20.7189 44.5294C20.719 42.7201 22.1912 41.2482 24.0005 41.2484C25.8097 41.2485 27.2816 42.7207 27.2814 44.5299L27.2813 45.1861ZM22.5945 37.0295C22.5946 36.2541 23.2254 35.6232 24.0008 35.6233C24.7763 35.6234 25.407 36.2542 25.407 37.0297C25.4069 37.8051 24.7761 38.4359 24.0007 38.4358C23.2252 38.4357 22.5944 37.8049 22.5945 37.0295ZM36.6563 45.1868L30.0938 45.1863L30.0939 44.53C30.0941 42.438 29.0343 40.5892 27.4236 39.4912C27.9236 38.798 28.2194 37.948 28.2195 37.0298C28.2196 35.7915 27.6833 34.6761 26.8307 33.9036C27.6653 32.1185 29.4703 30.9362 31.5012 30.9363C34.3444 30.9365 36.6573 33.2497 36.6571 36.0929L36.6563 45.1868ZM28.6891 25.3111C28.6892 23.7603 29.951 22.4987 31.5018 22.4988C33.0526 22.4989 34.3142 23.7607 34.3141 25.3115C34.314 26.8623 33.0522 28.1239 31.5014 28.1238C29.9506 28.1237 28.689 26.8619 28.6891 25.3111ZM42.2813 45.1872L39.4688 45.187L39.4695 36.0933C39.4697 33.171 37.8877 30.6125 35.536 29.2253C36.5193 28.212 37.1264 26.8318 37.1266 25.3118C37.1268 22.2101 34.6037 19.6866 31.5021 19.6863C28.4004 19.686 25.8769 22.2093 25.8766 25.3109C25.8765 26.8292 26.482 28.208 27.4631 29.221C26.0586 30.0459 24.9189 31.2934 24.2337 32.8176C24.1567 32.8133 24.0791 32.8108 24.001 32.8108C23.9229 32.8108 23.8454 32.8133 23.7683 32.8175C23.0833 31.2932 21.944 30.0456 20.5395 29.2205C21.5207 28.2075 22.1265 26.8289 22.1266 25.3106C22.1268 22.209 19.6037 19.6854 16.5021 19.6852C13.4004 19.685 10.8769 22.2082 10.8766 25.3098C10.8765 26.8298 11.4834 28.2101 12.4665 29.2235C10.1146 30.6103 8.53219 33.1686 8.532 36.0908L8.53134 45.1846L5.71884 45.1844L5.72072 20.0767L24.0028 9.52341L42.2833 20.0795L42.2813 45.1872Z" fill="#25316B"/>
</svg>
