<svg width="48" height="48" viewBox="0 0 48 48" fill="none" xmlns="http://www.w3.org/2000/svg">
<path d="M47.8931 46.0204L43.6664 35.6847C46.2762 31.3644 47.434 26.2479 46.9328 21.1901C46.3989 15.8031 43.9932 10.7248 40.1587 6.89028C35.7155 2.44698 29.808 0 23.5243 0C17.2408 0 11.3332 2.44707 6.89015 6.89018C2.44706 11.3333 0 17.2409 0 23.5245C0 29.808 2.44706 35.7156 6.89015 40.1587C10.7246 43.9932 15.8031 46.399 21.19 46.9327C21.9616 47.0092 22.7338 47.047 23.5051 47.047C27.7896 47.0469 32.0233 45.878 35.6844 43.6663L46.0202 47.893C46.1961 47.9649 46.3805 48 46.5635 48C46.9373 48 47.3047 47.854 47.5793 47.5793C47.9884 47.1703 48.1121 46.5558 47.8931 46.0204ZM36.0898 40.729C35.654 40.5508 35.1584 40.5976 34.7633 40.8543C26.6459 46.1311 15.7776 44.9843 8.92106 38.1277C0.868781 30.0754 0.868781 16.9734 8.92106 8.92119C12.9472 4.89508 18.2358 2.88198 23.5243 2.88198C28.8127 2.88198 34.1014 4.89499 38.1274 8.92119C44.984 15.7779 46.1307 26.6462 40.854 34.7637C40.5973 35.1585 40.5505 35.6541 40.7287 36.09L43.9384 43.9387L36.0898 40.729Z" fill="#25316B"/>
<path d="M33.2244 18.7936L24.4256 11.7094C23.8999 11.2861 23.1502 11.2861 22.6244 11.7094L13.8247 18.7936C13.4861 19.0662 13.2891 19.4776 13.2891 19.9123V31.7804C13.2891 32.5735 13.9322 33.2165 14.7253 33.2165H20.7668C21.56 33.2165 22.203 32.5735 22.203 31.7804V27.4516C22.203 26.7229 22.7959 26.13 23.5247 26.13C24.2535 26.13 24.8463 26.7229 24.8463 27.4516V31.7804C24.8463 32.5735 25.4893 33.2165 26.2824 33.2165H32.324C33.1171 33.2165 33.7601 32.5735 33.7601 31.7804V19.9122C33.7599 19.4776 33.563 19.0662 33.2244 18.7936ZM27.7183 30.3441V27.4515C27.7183 25.139 25.837 23.2576 23.5244 23.2576C21.2118 23.2576 19.3304 25.139 19.3304 27.4515V30.3441H16.1612V20.5998L23.5247 14.6719L30.8873 20.5998V30.3441H27.7183Z" fill="#25316B"/>
</svg>
