<svg width="48" height="48" viewBox="0 0 48 48" fill="none" xmlns="http://www.w3.org/2000/svg">
<path d="M43.7811 25.409C42.6145 25.409 41.4892 25.8986 40.6938 26.7524L39.5624 27.9668C39.5624 26.9835 39.5624 20.3445 39.5624 19.4484C41.222 20.0358 43.1162 19.543 44.2622 18.1077C45.7191 16.2884 45.4268 13.635 43.6036 12.179L39.5624 8.94646V1.41177C39.5624 0.635238 38.9328 0.00570696 38.1561 0.00570696H32.5312C31.7546 0.00570696 31.125 0.635238 31.125 1.41177V2.1973L29.5407 0.929988C27.9896 -0.310043 25.8228 -0.310043 24.2712 0.93027L10.2096 12.1782C8.38456 13.6356 8.09418 16.2895 9.54898 18.1063C10.7236 19.5769 12.6424 20.0209 14.25 19.4512V25.2524C13.2597 25.5457 12.3074 25.9974 11.4323 26.6077C11.3238 24.3777 9.47547 22.5967 7.21874 22.5967H1.40622C0.629604 22.5967 0 23.2263 0 24.0028V46.5939C0 47.3705 0.629604 48 1.40622 48H7.21874C9.05983 48 10.6283 46.8143 11.2027 45.1667C11.2792 45.1796 11.3573 45.1879 11.4375 45.1879H32.5312C35.5691 45.1879 38.5131 43.681 40.4062 41.1571L47.1577 32.1565C47.7087 31.4219 48 30.5472 48 29.6272C47.9999 27.3012 46.1074 25.409 43.7811 25.409ZM8.62496 43.7818C8.62496 44.5571 7.99414 45.1879 7.21874 45.1879H2.81254V25.409H7.21883C7.99423 25.409 8.62506 26.0397 8.62506 26.815L8.62496 43.7818ZM33.9375 2.81783H36.75V6.69674L33.9375 4.44702V2.81783ZM13.7214 16.5706C13.1172 17.0541 12.2326 16.9598 11.7455 16.35C11.2622 15.7464 11.3547 14.8629 11.9658 14.3749L26.0279 3.12646C26.5451 2.71293 27.2674 2.71311 27.7842 3.12618L41.8476 14.3756C42.452 14.8582 42.5549 15.7403 42.0657 16.3516C41.5824 16.9568 40.6981 17.0567 40.0907 16.5703L27.7846 6.72768C27.5278 6.52227 27.217 6.41952 26.9062 6.41952C26.5953 6.41952 26.2845 6.52227 26.0277 6.72768C25.5096 7.14205 14.2408 16.1551 13.7214 16.5706ZM29.7187 19.7845H24.0937C23.3171 19.7845 22.6875 20.4141 22.6875 21.1906V26.604C21.0035 25.4314 19.0336 24.8427 17.0625 24.8427V17.4993L26.9063 9.62615L36.75 17.4994C36.75 17.6422 36.75 29.2353 36.75 29.3533V30.9857L36.5607 31.1887C36.0266 29.4714 34.4223 28.221 32.5312 28.221H31.125V21.1906C31.1249 20.4141 30.4953 19.7845 29.7187 19.7845ZM28.3125 22.5967V28.2211H25.4999V22.5967H28.3125ZM44.9075 30.4692L38.1561 39.4698C36.7913 41.2894 34.6885 42.3757 32.5312 42.3757H11.4375V30.2629L12.4175 29.4006C15.0656 27.0705 19.0596 27.0705 21.7075 29.4006C22.2049 29.8382 22.4187 30.0345 22.6241 30.1897C22.7137 30.2573 23.5969 31.0332 24.0937 31.0332C24.2282 31.0332 32.5312 31.0332 32.5312 31.0332C33.3066 31.0332 33.9374 31.664 33.9374 32.4393C33.9374 33.2146 33.3066 33.8453 32.5312 33.8453C31.6314 33.8453 21.5093 33.8453 21.2812 33.8453C20.5046 33.8453 19.8749 34.4749 19.8749 35.2514C19.8749 36.0279 20.5046 36.6575 21.2812 36.6575C22.9122 36.6575 32.1824 36.6575 33.4737 36.6575C34.6404 36.6575 35.7654 36.168 36.5607 35.3144L42.7517 28.669C43.021 28.38 43.3865 28.221 43.7811 28.221C44.5565 28.221 45.1874 28.8517 45.1874 29.6271C45.1875 29.934 45.0907 30.2252 44.9075 30.4692Z" fill="#25316B"/>
</svg>
