<svg width="48" height="48" viewBox="0 0 48 48" fill="none" xmlns="http://www.w3.org/2000/svg">
<path d="M8.41522 15.7945L8.43753 15.7753V24C8.43753 24.7797 9.06716 25.4117 9.84378 25.4117H22.9688C23.7454 25.4117 24.3751 24.7797 24.3751 24V15.7753L24.3974 15.7945C24.6626 16.0228 24.988 16.1345 25.3119 16.1344C25.7082 16.1344 26.1021 15.9671 26.3803 15.6414C26.8858 15.0494 26.8174 14.1582 26.2278 13.6508L17.3215 5.98692C16.7949 5.53383 16.0178 5.53383 15.4912 5.98692L6.58493 13.6508C5.99524 14.1583 5.9269 15.0494 6.4324 15.6414C6.93771 16.2335 7.82553 16.302 8.41522 15.7945ZM16.4063 8.91821L21.5626 13.3552V22.5882H17.8125V20.2353C17.8125 19.4556 17.1829 18.8235 16.4063 18.8235C15.6297 18.8235 15 19.4556 15 20.2353V22.5882H11.25V13.3552L16.4063 8.91821Z" fill="#25316B"/>
<path d="M15.4687 16H17.3437C18.1204 16 18.75 15.3679 18.75 14.5882C18.75 13.8086 18.1204 13.1765 17.3437 13.1765H15.4687C14.6921 13.1765 14.0625 13.8086 14.0625 14.5882C14.0625 15.3679 14.6921 16 15.4687 16Z" fill="#25316B"/>
<path d="M7.03126 31.0588H20.1563C20.9329 31.0588 21.5625 30.4267 21.5625 29.6471C21.5625 28.8674 20.9329 28.2353 20.1563 28.2353H7.03126C6.25463 28.2353 5.62501 28.8674 5.62501 29.6471C5.62501 30.4267 6.25463 31.0588 7.03126 31.0588Z" fill="#25316B"/>
<path d="M7.03126 36.7059H20.1563C20.9329 36.7059 21.5625 36.0738 21.5625 35.2941C21.5625 34.5145 20.9329 33.8824 20.1563 33.8824H7.03126C6.25463 33.8824 5.62501 34.5145 5.62501 35.2941C5.62501 36.0738 6.25463 36.7059 7.03126 36.7059Z" fill="#25316B"/>
<path d="M45.772 22.9723L46.7663 21.9741C48.4112 20.3227 48.4112 17.6359 46.7663 15.9845C45.1215 14.3332 42.445 14.3332 40.8001 15.9845L32.8125 24.0034V9.41177H38.9063C39.6829 9.41177 40.3125 8.77967 40.3125 8V5.17647C40.3125 2.32216 37.9994 0 35.1563 0H5.15626C2.3131 0 0 2.32216 0 5.17647V42.8235C0 45.6778 2.3131 48 5.15626 48H35.1563C37.9994 48 40.3125 45.6778 40.3125 42.8235V40C40.3125 39.2203 39.6829 38.5882 38.9063 38.5882H32.8125V35.9819C32.8233 35.9711 32.8344 35.9607 32.8452 35.9498L43.7832 24.9689L44.1147 25.3017C44.663 25.8522 44.663 26.7478 44.1148 27.2983L36.8227 34.6189C36.2735 35.1702 36.2735 36.0641 36.8227 36.6154C37.0973 36.8911 37.4572 37.029 37.817 37.029C38.1768 37.029 38.5368 36.8911 38.8113 36.6154L46.1035 29.2948C47.7481 27.6435 47.7481 24.9565 46.1034 23.3052L45.772 22.9723ZM35.1563 2.82353C36.4486 2.82353 37.5 3.87906 37.5 5.17647V6.58824H32.8125V5.17647C32.8125 3.87906 33.8639 2.82353 35.1563 2.82353ZM37.5 41.4118V42.8235C37.5 44.1209 36.4486 45.1765 35.1563 45.1765C33.8639 45.1765 32.8125 44.1209 32.8125 42.8235V41.4118H37.5ZM30.5641 45.1765H5.15626C3.86391 45.1765 2.8125 44.1209 2.8125 42.8235V5.17647C2.8125 3.87906 3.86391 2.82353 5.15626 2.82353H30.5641C30.2037 3.52988 30 4.32979 30 5.17647V26.8269L26.879 29.9602C24.6417 32.2064 23.1271 35.1405 22.5805 38.2668L21.3227 39.5294H7.03126C6.25463 39.5294 5.62501 40.1615 5.62501 40.9412C5.62501 41.7208 6.25463 42.3529 7.03126 42.3529H21.9052C22.2936 42.3529 22.6452 42.1948 22.8998 41.9392L24.5663 40.2662C26.4893 39.9279 28.3392 39.219 30 38.1974V42.8235C30 43.6702 30.2037 44.4701 30.5641 45.1765ZM30.8564 33.9533C29.4346 35.3806 27.6748 36.4502 25.766 37.0671C26.3805 35.1509 27.4459 33.3841 28.8676 31.9567L39.8057 20.9758L41.7945 22.9723L30.8564 33.9533ZM44.7777 19.9776L43.7834 20.9758L41.7945 18.9793L42.789 17.981C43.3372 17.4306 44.2294 17.4306 44.7777 17.981C45.3259 18.5314 45.3259 19.4271 44.7777 19.9776Z" fill="#25316B"/>
</svg>
