<svg width="48" height="48" viewBox="0 0 48 48" fill="none" xmlns="http://www.w3.org/2000/svg">
<path d="M47.5882 4.38928L43.6108 0.41175C43.0621 -0.137062 42.1712 -0.137437 41.6221 0.41175C41.0135 1.02038 36.5552 5.47866 35.8483 6.18553C35.3327 6.18553 2.23266 6.18553 1.40625 6.18553C0.629625 6.18553 0 6.81516 0 7.59178V46.5938C0 47.3704 0.629625 48 1.40625 48H20.9072C21.6838 48 22.3134 47.3704 22.3134 46.5938V39.93H25.8148C26.6446 42.5621 28.9573 44.5336 31.7181 44.9058C31.7818 44.9144 31.8451 44.9186 31.9077 44.9186C32.6008 44.9185 33.2044 44.406 33.2995 43.7002C33.4033 42.9305 32.8635 42.2223 32.0938 42.1186C30.3067 41.8777 28.8278 40.5365 28.4137 38.7812L28.2767 38.2008C28.1269 37.566 27.5603 37.1175 26.908 37.1175H22.3133C22.3133 36.7167 22.3133 20.7826 22.3133 20.6231C22.3133 19.8465 21.6837 19.2169 20.9071 19.2169C20.1305 19.2169 19.5008 19.8465 19.5008 20.6231V25.6866H14.4374C13.6608 25.6866 13.0312 26.3162 13.0312 27.0928C13.0312 27.8694 13.6608 28.4991 14.4374 28.4991H19.5008V45.1875H2.8125V28.4991H7.875C8.65162 28.4991 9.28125 27.8694 9.28125 27.0928C9.28125 26.3162 8.65162 25.6866 7.875 25.6866H2.8125V18.308H10.7161C11.4927 18.308 12.1223 17.6783 12.1223 16.9017V8.99803H19.5009V14.0605C19.5009 14.8372 20.1306 15.4668 20.9072 15.4668C21.6838 15.4668 22.3134 14.8372 22.3134 14.0605V8.99803H33.0357L27.2666 14.767C27.1229 14.9108 27.0109 15.09 26.9443 15.2674L24.5433 21.6668C24.1199 22.7955 25.2288 23.9045 26.3591 23.4756L32.7377 21.0536C32.9164 20.9858 33.1028 20.8633 33.2329 20.7333L39.002 14.9642V37.1175H34.4082C33.6316 37.1175 33.002 37.7471 33.002 38.5238C33.002 39.3004 33.6316 39.93 34.4082 39.93H40.4082C41.1848 39.93 41.8145 39.3004 41.8145 38.5238V12.1517C42.5149 11.4513 46.8878 7.07841 47.5882 6.378C48.1371 5.82928 48.1374 4.93828 47.5882 4.38928ZM9.30994 15.4954H2.8125V8.99803H9.30984L9.30994 15.4954ZM38.6389 7.37231L40.6276 9.36103C40.1517 9.837 33.1635 16.8252 32.9293 17.0594C32.4537 16.234 31.7659 15.5461 30.9405 15.0706C31.1799 14.8313 38.1412 7.87003 38.6389 7.37231ZM29.1726 17.3351C29.8596 17.5965 30.4063 18.144 30.6665 18.8316L28.2696 19.7417L29.1726 17.3351ZM42.6164 7.37231L40.6277 5.38359L42.6164 3.39478L44.6051 5.38359L42.6164 7.37231Z" fill="#25316B"/>
<path d="M6.96733 41.9898C7.73692 41.9898 8.3608 41.3659 8.3608 40.5963C8.3608 39.8267 7.73692 39.2028 6.96733 39.2028C6.19774 39.2028 5.57386 39.8267 5.57386 40.5963C5.57386 41.3659 6.19774 41.9898 6.96733 41.9898Z" fill="#25316B"/>
<path d="M34.467 33.993C35.2366 33.993 35.8604 33.3692 35.8604 32.5996C35.8604 31.83 35.2366 31.2061 34.467 31.2061C33.6974 31.2061 33.0735 31.83 33.0735 32.5996C33.0735 33.3692 33.6974 33.993 34.467 33.993Z" fill="#25316B"/>
</svg>
